<?xml version="1.0" encoding="UTF-8" standalone="no"?>
<!DOCTYPE svg PUBLIC "-//W3C//DTD SVG 1.1//EN" "http://www.w3.org/Graphics/SVG/1.1/DTD/svg11.dtd">
<svg width="100%" height="100%" viewBox="0 0 179 187" version="1.1" xmlns="http://www.w3.org/2000/svg" xmlns:xlink="http://www.w3.org/1999/xlink" xml:space="preserve" xmlns:serif="http://www.serif.com/" style="fill-rule:evenodd;clip-rule:evenodd;stroke-linejoin:round;stroke-miterlimit:2;">
    <g transform="matrix(1,0,0,1,-583,-279)">
        <g id="fi-mail" transform="matrix(1.79481,0,0,1.7667,580.36,300.668)">
            <path d="M85.944,20.189L14.056,20.189C12.654,20.191 11.501,21.344 11.5,22.746L11.5,27.89C11.5,28.127 11.757,28.399 11.967,28.509L49.753,50.092C49.85,50.147 49.96,50.176 50.071,50.175C50.185,50.175 50.297,50.145 50.395,50.087L87.039,28.53C87.245,28.415 87.791,28.111 87.996,27.971C88.244,27.802 88.5,27.649 88.5,27.346L88.5,22.745C88.498,21.343 87.346,20.191 85.944,20.189ZM88.181,35.646C87.981,35.532 87.735,35.533 87.536,35.65L66.799,47.851C66.603,47.965 66.483,48.175 66.483,48.401C66.483,48.563 66.544,48.718 66.654,48.836L87.394,71.193C87.514,71.323 87.684,71.398 87.861,71.397C88.211,71.396 88.499,71.108 88.5,70.758L88.5,36.201C88.501,35.972 88.379,35.76 88.181,35.646ZM60.823,51.948C60.621,51.728 60.29,51.678 60.032,51.83L51.72,56.721C50.73,57.293 49.509,57.301 48.512,56.742L41.197,52.563C40.955,52.425 40.65,52.46 40.446,52.649L12.668,78.415C12.539,78.536 12.465,78.705 12.465,78.883C12.465,79.11 12.586,79.32 12.782,79.435C13.214,79.689 13.631,79.81 14.055,79.81L85.208,79.81C85.462,79.811 85.693,79.659 85.793,79.425C85.895,79.193 85.848,78.921 85.675,78.736L60.823,51.948ZM34.334,49.601C34.465,49.48 34.539,49.31 34.539,49.132C34.539,48.903 34.417,48.692 34.219,48.578L12.453,36.146C12.357,36.091 12.248,36.063 12.138,36.063C11.788,36.063 11.5,36.351 11.5,36.701L11.5,69.326C11.5,69.675 11.788,69.963 12.137,69.963C12.299,69.963 12.455,69.901 12.573,69.79L34.334,49.601Z" style="fill:rgb(13,13,13);fill-rule:nonzero;"/>
        </g>
    </g>
</svg>
