<?xml version="1.0" encoding="UTF-8" standalone="no"?>
<!DOCTYPE svg PUBLIC "-//W3C//DTD SVG 1.1//EN" "http://www.w3.org/Graphics/SVG/1.1/DTD/svg11.dtd">
<svg width="100%" height="100%" viewBox="0 0 179 187" version="1.1" xmlns="http://www.w3.org/2000/svg" xmlns:xlink="http://www.w3.org/1999/xlink" xml:space="preserve" xmlns:serif="http://www.serif.com/" style="fill-rule:evenodd;clip-rule:evenodd;stroke-linejoin:round;stroke-miterlimit:2;">
    <g transform="matrix(1,0,0,1,-404,-279)">
        <g id="fi-home" transform="matrix(2.00437,0,0,2.00437,394.89,265.615)">
            <path d="M83.505,37.85L51.013,12.688C50.101,11.983 48.814,11.993 47.913,12.713L16.46,37.874C15.867,38.35 15.521,39.07 15.521,39.83L15.521,85.331C15.521,86.705 16.651,87.835 18.025,87.835L36.723,87.835C38.097,87.834 39.227,86.704 39.228,85.33L39.228,57.471L60.768,57.471L60.768,85.33C60.768,86.704 61.899,87.835 63.273,87.835L81.973,87.835C83.347,87.834 84.477,86.704 84.478,85.33L84.478,39.83C84.478,39.055 84.119,38.323 83.505,37.85Z" style="fill:rgb(13,13,13);fill-rule:nonzero;"/>
        </g>
    </g>
</svg>
