<?xml version="1.0" encoding="UTF-8" standalone="no"?>
<!DOCTYPE svg PUBLIC "-//W3C//DTD SVG 1.1//EN" "http://www.w3.org/Graphics/SVG/1.1/DTD/svg11.dtd">
<svg width="100%" height="100%" viewBox="0 0 894 755" version="1.1" xmlns="http://www.w3.org/2000/svg" xmlns:xlink="http://www.w3.org/1999/xlink" xml:space="preserve" xmlns:serif="http://www.serif.com/" style="fill-rule:evenodd;clip-rule:evenodd;stroke-linejoin:round;stroke-miterlimit:2;">
    <g transform="matrix(1,0,0,1,-76,0)">
        <path d="M246.124,129.694C271.219,102.1 300.743,78.615 334.69,59.247C392.233,26.416 457.013,10 529.03,10C601.046,10 665.65,26.416 722.84,59.247C780.03,92.078 824.687,136.736 856.812,193.219C888.937,249.703 905,312.188 905,380.675C905,445.632 890.35,504.586 861.049,557.54C831.748,610.494 791.856,653.21 741.373,685.688C690.891,718.166 635.29,737.229 574.57,742.878L440,742.878L440,345.726L578.806,345.726L578.806,640.148C652.235,632.381 710.484,605.198 753.553,558.599C796.622,512 818.156,452.692 818.156,380.675C818.156,329.134 806.33,282.711 782.677,241.407C759.025,200.103 725.311,167.625 681.536,143.973C637.761,120.32 586.925,108.494 529.03,108.494C471.134,108.494 420.122,120.32 375.994,143.973C351.572,157.063 330.285,172.856 312.135,191.354L246.124,129.694ZM273.674,515.165C273.889,515.523 274.106,515.88 274.323,516.236C297.975,555.069 331.336,584.723 374.405,605.198L383.396,679.854C312.791,652.319 258.073,608.367 219.24,548C212.991,538.285 207.245,528.338 202,518.154L273.674,515.165Z" style="fill-rule:nonzero;"/>
    </g>
</svg>
