<?xml version="1.0" encoding="UTF-8" standalone="no"?>
<!DOCTYPE svg PUBLIC "-//W3C//DTD SVG 1.1//EN" "http://www.w3.org/Graphics/SVG/1.1/DTD/svg11.dtd">
<svg width="100%" height="100%" viewBox="0 0 168 187" version="1.1" xmlns="http://www.w3.org/2000/svg" xmlns:xlink="http://www.w3.org/1999/xlink" xml:space="preserve" xmlns:serif="http://www.serif.com/" style="fill-rule:evenodd;clip-rule:evenodd;stroke-linejoin:round;stroke-miterlimit:2;">
    <g transform="matrix(1,0,0,1,-81,-279)">
        <g id="twitter-box" transform="matrix(7.67865,0,0,7.67865,73.7484,280.417)">
            <path d="M5,3L19,3C20.105,3 21,3.895 21,5L21,19C21,20.105 20.105,21 19,21L5,21C3.895,21 3,20.105 3,19L3,5C3,3.895 3.895,3 5,3ZM17.707,9.328C18.186,8.928 18.747,8.451 18.999,7.921C18.589,8.125 18.104,8.258 17.56,8.332C18.058,7.967 18.466,7.514 18.676,6.863C18.163,7.135 17.631,7.383 16.974,7.51C15.424,5.63 11.712,7.148 12.366,9.945C9.759,9.785 8.17,8.605 6.849,7.156C6.096,8.381 6.751,10.23 7.642,10.736C7.181,10.709 6.833,10.566 6.498,10.414C6.544,11.953 7.393,12.687 8.581,13.086C8.218,13.164 7.817,13.182 7.437,13.115C7.805,14.193 8.583,14.863 9.901,14.992C9.008,15.756 7.343,16.293 5.999,16.078C7.145,16.807 8.464,17.392 10.282,17.31C14.69,17.111 17.643,13.947 17.707,9.328Z" style="fill-rule:nonzero;"/>
        </g>
    </g>
</svg>
