<?xml version="1.0" encoding="UTF-8" standalone="no"?>
<!DOCTYPE svg PUBLIC "-//W3C//DTD SVG 1.1//EN" "http://www.w3.org/Graphics/SVG/1.1/DTD/svg11.dtd">
<svg width="100%" height="100%" viewBox="0 0 168 187" version="1.1" xmlns="http://www.w3.org/2000/svg" xmlns:xlink="http://www.w3.org/1999/xlink" xml:space="preserve" xmlns:serif="http://www.serif.com/" style="fill-rule:evenodd;clip-rule:evenodd;stroke-linejoin:round;stroke-miterlimit:2;">
    <g transform="matrix(1,0,0,1,-249,-279)">
        <g id="phone-classic" transform="matrix(5.75899,0,0,5.75899,271.784,314.971)">
            <path d="M11.994,3.002C7.456,3.002 3.338,4.781 0.289,7.67C0.109,7.85 0,8.099 0,8.379C0,8.659 0.109,8.91 0.289,9.09L2.77,11.568C2.949,11.748 3.199,11.857 3.479,11.857C3.748,11.857 3.998,11.748 4.178,11.578C4.967,10.838 5.868,10.218 6.838,9.729C7.168,9.569 7.396,9.23 7.396,8.83L7.396,5.731C8.846,5.251 10.395,5.002 11.994,5.002C13.593,5.002 15.144,5.251 16.594,5.721L16.594,8.82C16.594,9.21 16.823,9.559 17.152,9.719C18.132,10.209 19.023,10.839 19.822,11.568C20.002,11.748 20.252,11.848 20.522,11.848C20.801,11.848 21.051,11.739 21.231,11.559L23.711,9.08C23.891,8.9 24,8.649 24,8.369C24,8.089 23.879,7.85 23.699,7.67C20.651,4.781 16.532,3.002 11.994,3.002ZM9,7L9,10C9,10 3,15 3,18L3,22L21,22L21,18C21,15 15,10 15,10L15,7L13,7L13,9L11,9L11,7L9,7ZM12,12C14.209,12 16,13.791 16,16C16,18.209 14.209,20 12,20C9.791,20 8,18.209 8,16C8,13.791 9.791,12 12,12ZM12,13.5C10.619,13.5 9.5,14.619 9.5,16C9.5,17.381 10.619,18.5 12,18.5C13.381,18.5 14.5,17.381 14.5,16C14.5,14.619 13.381,13.5 12,13.5Z" style="fill:rgb(13,13,13);fill-rule:nonzero;"/>
        </g>
    </g>
</svg>
